<?xml version="1.0" encoding="utf-8"?>
<!-- Generator: Adobe Illustrator 23.0.3, SVG Export Plug-In . SVG Version: 6.00 Build 0)  -->
<svg version="1.1" id="Layer_1" xmlns="https://www.w3.org/2000/svg" xmlns:xlink="https://www.w3.org/1999/xlink" x="0px" y="0px"
	 viewBox="0 0 345 495" style="enable-background:new 0 0 345 495;" xml:space="preserve">
<style type="text/css">
	.st0{fill-rule:evenodd;clip-rule:evenodd;fill:#595959;}
</style>
<title>01</title>
<desc>Created with Sketch.</desc>
<g id="Page-1">
	<path class="st0" d="M0,129c0-14.4,0.1-26.2,0.4-35.3s1-16.9,2.2-23.4s2.8-12,4.7-16.6s4.6-9.5,7.9-14.8
		c8.2-12,19.3-21.5,33.5-28.5S78.2,0,95,0s32.3,3.5,46.4,10.4s25.3,16.5,33.5,28.5c3.4,5.3,6,10.2,7.9,14.8
		c1.9,4.6,3.4,10.1,4.3,16.6s1.7,14.3,2.2,23.4s0.7,20.9,0.7,35.3v236.3c0,14.4-0.2,26.2-0.7,35.3s-1.2,16.9-2.2,23.4
		s-2.4,12-4.3,16.6c-1.9,4.6-4.6,9.5-7.9,14.8c-8.2,12.5-19.3,22.2-33.5,29.2S111.8,495,95,495s-32.3-3.5-46.4-10.4
		s-25.3-16.7-33.5-29.2c-3.4-5.3-6-10.2-7.9-14.8S3.7,430.5,2.5,424s-1.9-14.3-2.2-23.4S0,379.7,0,365.3V129z M123,100.8
		c0-13.9-2.2-23.9-6.5-29.9s-11.5-9-21.5-9c-9.6,0-16.6,3-21.2,9S67,86.9,67,100.8v291.3c0,13.9,2.2,23.9,6.5,29.9
		c4.3,6,11.5,9,21.5,9c9.6,0,16.6-3,21.2-9c4.5-6,6.8-15.9,6.8-29.9V100.8z M278.3,93.7H223V45.4c15.8-1,30.4-5.2,43.8-12.6
		C280.2,25.4,290,14.4,296.2,0H345v495h-66.7V93.7z"/>
</g>
</svg>
